<svg width="16" height="17" viewBox="0 0 16 17" fill="none" xmlns="http://www.w3.org/2000/svg">
<path d="M7.77447 13.8295L7.77574 13.8304C7.8419 13.8755 7.92008 13.8998 8.00017 13.9C8.08021 13.8998 8.15836 13.8756 8.2245 13.8305L8.22549 13.8298C10.6376 12.1924 11.6573 11.0875 12.2046 10.4206C13.3799 8.98778 13.9152 7.55689 13.9 6.02608C13.8835 4.40021 12.5807 3.1 11.0287 3.1C9.89688 3.1 9.09431 3.7338 8.59669 4.31313L8.59455 4.31562C8.52062 4.40074 8.42928 4.46899 8.32671 4.51576C8.22414 4.56253 8.11272 4.58674 7.99998 4.58674C7.88724 4.58674 7.77582 4.56253 7.67325 4.51576C7.57068 4.46899 7.47934 4.40074 7.40542 4.31562L7.40345 4.31336L7.40346 4.31335C6.90556 3.73425 6.10294 3.1 4.97123 3.1C3.41929 3.1 2.1165 4.40019 2.09995 6.02567L7.77447 13.8295ZM7.77447 13.8295C5.36248 12.1922 4.34271 11.0872 3.79539 10.4203L7.77447 13.8295ZM3.79534 10.4203C2.61954 8.98726 2.08473 7.55638 2.09995 6.02577L3.79534 10.4203Z" fill="#E30022" stroke="black" stroke-width="1.2"/>
</svg>
