<svg width="32" height="32" viewBox="0 0 32 32" fill="none" xmlns="http://www.w3.org/2000/svg">
<g id="ep:back">
<path id="Vector" d="M7 15H27C27.2652 15 27.5196 15.1054 27.7071 15.2929C27.8946 15.4804 28 15.7348 28 16C28 16.2652 27.8946 16.5196 27.7071 16.7071C27.5196 16.8946 27.2652 17 27 17H7C6.73478 17 6.48043 16.8946 6.29289 16.7071C6.10536 16.5196 6 16.2652 6 16C6 15.7348 6.10536 15.4804 6.29289 15.2929C6.48043 15.1054 6.73478 15 7 15Z" fill="black"/>
<path id="Vector_2" d="M7.41396 15.9998L15.708 24.2918C15.8957 24.4796 16.0012 24.7342 16.0012 24.9998C16.0012 25.2653 15.8957 25.52 15.708 25.7078C15.5202 25.8956 15.2655 26.0011 15 26.0011C14.7344 26.0011 14.4797 25.8956 14.292 25.7078L5.29196 16.7078C5.19883 16.6149 5.12494 16.5046 5.07453 16.3831C5.02412 16.2616 4.99817 16.1313 4.99817 15.9998C4.99817 15.8683 5.02412 15.738 5.07453 15.6165C5.12494 15.495 5.19883 15.3847 5.29196 15.2918L14.292 6.2918C14.4797 6.10402 14.7344 5.99854 15 5.99854C15.2655 5.99854 15.5202 6.10402 15.708 6.2918C15.8957 6.47957 16.0012 6.73425 16.0012 6.9998C16.0012 7.26535 15.8957 7.52003 15.708 7.7078L7.41396 15.9998Z" fill="black"/>
</g>
</svg>
