<svg width="58" height="44" viewBox="0 0 58 44" fill="none" xmlns="http://www.w3.org/2000/svg">
<path id="Vector" d="M18.0146 35.6008L6.06312 23.6493C5.7506 23.333 5.37839 23.0818 4.96808 22.9104C4.55776 22.739 4.11751 22.6507 3.67283 22.6507C3.22815 22.6507 2.78789 22.739 2.37757 22.9104C1.96726 23.0818 1.59505 23.333 1.28253 23.6493C0.966193 23.9619 0.715036 24.3341 0.543619 24.7444C0.372202 25.1547 0.283936 25.595 0.283936 26.0396C0.283936 26.4843 0.372202 26.9246 0.543619 27.3349C0.715036 27.7452 0.966193 28.1174 1.28253 28.4299L15.5901 42.7375C16.9219 44.0693 19.0731 44.0693 20.4049 42.7375L56.6008 6.57581C56.9171 6.26329 57.1683 5.89108 57.3397 5.48077C57.5111 5.07046 57.5994 4.6302 57.5994 4.18552C57.5994 3.74084 57.5111 3.30058 57.3397 2.89027C57.1683 2.47996 56.9171 2.10775 56.6008 1.79523C56.2882 1.47889 55.916 1.22773 55.5057 1.05631C55.0954 0.884897 54.6552 0.796631 54.2105 0.796631C53.7658 0.796631 53.3255 0.884897 52.9152 1.05631C52.5049 1.22773 52.1327 1.47889 51.8202 1.79523L18.0146 35.6008Z" fill="#839C3B"/>
</svg>
