<svg width="36" height="35" viewBox="0 0 36 35" fill="none" xmlns="http://www.w3.org/2000/svg">
<path fill-rule="evenodd" clip-rule="evenodd" d="M15.8125 8.02081C13.8787 8.02081 12.024 8.78904 10.6566 10.1565C9.2891 11.5239 8.52087 13.3786 8.52087 15.3125C8.52087 17.2463 9.2891 19.101 10.6566 20.4685C12.024 21.8359 13.8787 22.6041 15.8125 22.6041C17.7464 22.6041 19.6011 21.8359 20.9685 20.4685C22.336 19.101 23.1042 17.2463 23.1042 15.3125C23.1042 13.3786 22.336 11.5239 20.9685 10.1565C19.6011 8.78904 17.7464 8.02081 15.8125 8.02081ZM6.33337 15.3125C6.33337 12.7984 7.33207 10.3874 9.10976 8.6097C10.8874 6.83201 13.2985 5.83331 15.8125 5.83331C18.3266 5.83331 20.7376 6.83201 22.5153 8.6097C24.293 10.3874 25.2917 12.7984 25.2917 15.3125C25.2917 17.8265 24.293 20.2376 22.5153 22.0153C20.7376 23.793 18.3266 24.7916 15.8125 24.7916C13.2985 24.7916 10.8874 23.793 9.10976 22.0153C7.33207 20.2376 6.33337 17.8265 6.33337 15.3125Z" fill="black"/>
<path fill-rule="evenodd" clip-rule="evenodd" d="M21.6021 21.102C21.8072 20.8972 22.0852 20.7822 22.375 20.7822C22.6649 20.7822 22.9429 20.8972 23.1479 21.102L28.9813 26.9354C29.0887 27.0355 29.1749 27.1563 29.2347 27.2904C29.2945 27.4246 29.3266 27.5694 29.3292 27.7163C29.3318 27.8631 29.3048 28.009 29.2498 28.1452C29.1948 28.2814 29.1129 28.4051 29.009 28.509C28.9052 28.6128 28.7815 28.6947 28.6453 28.7497C28.5091 28.8047 28.3632 28.8317 28.2163 28.8291C28.0695 28.8266 27.9246 28.7944 27.7905 28.7346C27.6563 28.6749 27.5356 28.5887 27.4354 28.4812L21.6021 22.6479C21.3973 22.4428 21.2822 22.1648 21.2822 21.875C21.2822 21.5851 21.3973 21.3071 21.6021 21.102Z" fill="black"/>
</svg>
